<svg width="1200" height="900" viewBox="0 0 1200 900" fill="none" xmlns="http://www.w3.org/2000/svg">
  <rect width="1200" height="900" rx="48" fill="#F0FDF4"/>
  <rect x="66" y="66" width="1068" height="768" rx="36" fill="url(#paint0_linear)"/>
  <path d="M602 628C516 576 372 471 372 338C372 259 434 202 510 202C561 202 597 227 622 265C647 227 683 202 734 202C810 202 872 259 872 338C872 471 728 576 642 628C629 636 615 640 602 640Z" fill="#EC4899"/>
  <circle cx="505" cy="322" r="28" fill="#FBCFE8" opacity="0.9"/>
  <defs>
    <linearGradient id="paint0_linear" x1="110" y1="110" x2="1098" y2="794" gradientUnits="userSpaceOnUse">
      <stop stop-color="#BBF7D0"/>
      <stop offset="1" stop-color="#6EE7B7"/>
    </linearGradient>
  </defs>
</svg>
